<?xml version="1.0" encoding="UTF-8"?>
<svg xmlns="http://www.w3.org/2000/svg" width="24" height="22" viewBox="0 0 24 22" fill="none">
  <path d="M11.9993 0.5C12.6649 0.5 13.279 0.851562 13.6166 1.42812L23.7423 18.6781C24.0845 19.2594 24.0845 19.9766 23.7517 20.5578C23.4188 21.1391 22.7953 21.5 22.125 21.5H1.87353C1.20317 21.5 0.579683 21.1391 0.246847 20.5578C-0.0859892 19.9766 -0.0813014 19.2547 0.256223 18.6781L10.3819 1.42812C10.7195 0.851562 11.3336 0.5 11.9993 0.5ZM11.9993 6.5C11.3758 6.5 10.8742 7.00156 10.8742 7.625V12.875C10.8742 13.4984 11.3758 14 11.9993 14C12.6227 14 13.1243 13.4984 13.1243 12.875V7.625C13.1243 7.00156 12.6227 6.5 11.9993 6.5ZM13.4994 17C13.4994 16.6022 13.3413 16.2206 13.06 15.9393C12.7787 15.658 12.3971 15.5 11.9993 15.5C11.6014 15.5 11.2198 15.658 10.9385 15.9393C10.6572 16.2206 10.4991 16.6022 10.4991 17C10.4991 17.3978 10.6572 17.7794 10.9385 18.0607C11.2198 18.342 11.6014 18.5 11.9993 18.5C12.3971 18.5 12.7787 18.342 13.06 18.0607C13.3413 17.7794 13.4994 17.3978 13.4994 17Z" fill="#FCD507"></path>
</svg>
