<?xml version="1.0" encoding="UTF-8"?>
<svg xmlns="http://www.w3.org/2000/svg" width="18" height="6" viewBox="0 0 18 6" fill="none">
  <path d="M0 5.51259V0.599609H0.762166L1.72168 3.23013C1.83736 3.5715 1.95305 3.91286 2.07554 4.25423H2.10957C2.22525 3.91286 2.33413 3.5715 2.44982 3.23013L3.40253 0.599609H4.16469V5.51259H3.57265V2.79506C3.57265 2.37337 3.62029 1.77765 3.65431 1.34927H3.62709L3.2324 2.46708L2.2865 5.01728H1.86458L0.918682 2.46708L0.523989 1.34927H0.496769C0.523989 1.77765 0.571624 2.37337 0.571624 2.79506V5.51259H0Z" fill="#312F2F"></path>
  <path d="M5.52246 5.51259V0.599609H8.401V1.12839H6.15533V2.66788H8.04713V3.19666H6.15533V4.98381H8.47585V5.51259H5.52246Z" fill="#312F2F"></path>
  <path d="M9.52309 5.51259V0.599609H10.1764L11.9933 3.69867L12.5241 4.70938H12.5581C12.5241 4.21407 12.4765 3.66521 12.4765 3.1565V0.599609H13.0753V5.51259H12.4288L10.6119 2.41353L10.0743 1.40282H10.0471C10.0743 1.89814 10.1219 2.42023 10.1219 2.93562V5.51259H9.52309Z" fill="#312F2F"></path>
  <path d="M16.2035 5.59961C15.1895 5.59961 14.4137 5.06413 14.4137 3.48448V0.599609H15.0466V3.50456C15.0466 4.6893 15.557 5.05744 16.2035 5.05744C16.8704 5.05744 17.3944 4.6893 17.3944 3.50456V0.599609H18V3.48448C18 5.06413 17.2242 5.59961 16.2035 5.59961Z" fill="#312F2F"></path>
</svg>
