<?xml version="1.0" encoding="UTF-8"?>
<svg xmlns="http://www.w3.org/2000/svg" width="18" height="27" viewBox="0 0 18 27" fill="none">
  <path d="M4.56249 26.264C-1.52535 20.1762 -1.51631 10.3147 4.56249 4.23592C4.82958 3.96882 5.24344 3.92504 5.55919 4.12239L8.59749 6.02143C8.75769 6.12155 8.87762 6.27479 8.9363 6.45437C8.99499 6.63394 8.9887 6.82843 8.91853 7.00384L7.39941 10.8017C7.33451 10.9639 7.21863 11.1007 7.06924 11.1913C6.91985 11.2819 6.74504 11.3215 6.57118 11.3042L3.95508 11.0426C2.96832 13.7736 2.9889 16.7834 3.95508 19.4574L6.57122 19.1957C6.74509 19.1784 6.9199 19.218 7.06929 19.3086C7.21868 19.3992 7.33456 19.536 7.39946 19.6982L8.91858 23.4961C8.98874 23.6715 8.99502 23.866 8.93634 24.0456C8.87765 24.2251 8.75774 24.3784 8.59754 24.4785L5.55924 26.3776C5.40473 26.4741 5.22206 26.5154 5.04104 26.4948C4.86002 26.4742 4.69133 26.3928 4.56249 26.264ZM11.584 6.97529C12.1387 7.91499 12.1387 9.08504 11.584 10.0247C11.3989 10.3385 10.9696 10.3978 10.7066 10.1457L10.4265 9.87732C10.2432 9.70163 10.2019 9.42629 10.3206 9.20185C10.4348 8.98555 10.4945 8.74463 10.4945 8.50002C10.4945 8.2554 10.4348 8.01449 10.3206 7.79818C10.2018 7.57374 10.2432 7.2984 10.4265 7.12271L10.7066 6.85431C10.9696 6.60221 11.3989 6.66156 11.584 6.97529ZM15.8865 2.7009C18.7056 6.05734 18.7034 10.9454 15.8865 14.2991C15.6768 14.5488 15.2992 14.5684 15.0638 14.3428L14.792 14.0823C14.5783 13.8774 14.5587 13.5419 14.7484 13.3146C17.0775 10.5237 17.0756 6.47396 14.7484 3.68542C14.5587 3.45807 14.5782 3.12254 14.792 2.91765L15.0638 2.65717C15.2992 2.43156 15.6768 2.4512 15.8865 2.7009ZM13.7316 4.80751C15.4215 6.97885 15.4242 10.0176 13.7316 12.1925C13.5258 12.4569 13.1364 12.4855 12.8946 12.2536L12.6219 11.9921C12.4156 11.7943 12.3876 11.472 12.5617 11.2453C13.8055 9.62513 13.8054 7.37476 12.5617 5.75467C12.3876 5.52798 12.4156 5.20571 12.6219 5.0079L12.8946 4.74639C13.1364 4.51449 13.5258 4.54309 13.7316 4.80751Z" fill="#D73939"></path>
</svg>
